# xmcd
#
# Track frame offsets:
#	150
#	17681
#	35465
#	59051
#	75291
#
# Disc length: 1233
#
# Revision: 1
# Processed by: cddbd v1.5.1PL0 Copyright (c) Steve Scherf et al.
# Submitted via: dBpowerAMP V4.0
# Normalized: r0:TRMNUM
#
DISCID=3304cf05
DTITLE=Biber's Blues Combo - Remember Red Blue
DYEAR=1998
DGENRE=Blues
TTITLE0=Rollin' and tumblin'
TTITLE1=You better watch yourself
TTITLE2=I can't hold on
TTITLE3=My heart beat like a hammer
TTITLE4=Game end
EXTD=Blues from Vienna/Austria
EXTT0=
EXTT1=
EXTT2=
EXTT3=
EXTT4=
PLAYORDER=
